<svg width="100" height="63" viewBox="0 0 100 63" fill="none" xmlns="http://www.w3.org/2000/svg">
<path d="M85.7002 18.8C85.7002 18.9 85.7002 19 85.7002 19.1C85.8002 19.8 86.4002 20.3 87.1002 20.2H87.2002C88.7002 20.1 89.9002 18.8 89.8002 17.2C89.2002 17.1 88.6002 17.1 88.0002 17C86.8002 17.1 85.7002 17.4 85.7002 18.8Z" fill="black"/>
<path d="M37.1002 12.6C35.3002 12.6 34.2002 13.9 34.2002 16.3C34.2002 18.5 35.2002 20.1 37.1002 20.1C38.9002 20.1 40.2002 18.7 40.2002 16.3C40.2002 13.9 38.9002 12.6 37.1002 12.6Z" fill="black"/>
<path d="M0.200195 0V28.3H99.3002V0H0.200195ZM29.0002 22.5H23.8002V15.5C23.8002 13.4 23.1002 12.5 21.7002 12.5C20.0002 12.5 19.4002 13.7 19.4002 15.4V19.7H21.0002V22.4H15.8002V15.4C15.8002 13.3 15.1002 12.4 13.7002 12.4C12.0002 12.4 11.4002 13.6 11.4002 15.3V19.7H13.6002V22.4H6.00019V19.7H7.7002V12.7H6.00019V10H11.2002V11.9C12.0002 10.5 13.4002 9.7 15.0002 9.8C16.8002 9.7 18.4002 10.8 19.0002 12.5C19.6002 10.8 21.3002 9.8 23.0002 9.8C25.2002 9.7 27.1002 11.3 27.3002 13.5C27.3002 13.7 27.3002 13.9 27.3002 14V19.7H28.9002V22.5H29.0002ZM43.8002 16.3C43.8002 20.3 40.8002 22.8 37.0002 22.8C33.2002 22.8 30.5002 20.5 30.5002 16.5C30.5002 16.2 30.5002 15.9 30.5002 15.7C30.7002 12.3 33.7002 9.7 37.1002 9.9C37.4002 9.9 37.7002 9.9 38.0002 9.9C41.4002 10 44.0002 12.9 43.8002 16.3ZM57.0002 22.4H46.2002L45.8002 20.6L52.6002 12.8H48.8002L48.2002 14.7L45.6002 14.4L46.0002 10H56.9002L57.2002 11.9L50.4002 19.7H54.4002L55.0002 17.8L57.8002 18.1L57.0002 22.4ZM64.1002 22.4H60.4002V17.9H64.1002V22.4ZM64.1002 14.5H60.4002V10H64.1002V14.5ZM66.4002 22.5L71.8002 3.6H75.3002L69.9002 22.5H66.4002ZM73.6002 22.5L79.0002 3.6H82.5002L77.1002 22.5H73.6002ZM92.6002 22.7H92.5002C91.1002 22.7 89.9002 21.6 89.9002 20.2C89.1002 21.7 87.6002 22.7 85.9002 22.7C85.8002 22.7 85.7002 22.7 85.6002 22.7C83.7002 22.7 82.1002 21.1 82.1002 19.2C82.1002 16.1 85.0002 15.4 87.9002 15.4C88.6002 15.4 89.3002 15.4 89.9002 15.5V15.1C89.9002 13.8 89.9002 12.3 87.9002 12.3C87.2002 12.3 86.6002 12.4 86.0002 12.7L85.6002 14.1L82.8002 13.8L83.3002 10.9C85.0002 10.1 86.8002 9.7 88.6002 9.7C91.3002 9.7 93.5002 11.1 93.5002 13.9V19.3C93.5002 20 93.8002 20.3 94.4002 20.3C94.6002 20.3 94.7002 20.3 94.9002 20.2V22C94.1002 22.5 93.4002 22.7 92.6002 22.7Z" fill="black"/>
<path d="M99.1002 37.8H88.1002L88.7002 36.1C88.7002 36.1 88.8002 35.9 88.8002 35.6C88.8002 34.9 88.3002 34.2 87.5002 34.2H78.8002H78.7002H76.4002C76.3002 34.2 76.3002 34.2 76.2002 34.3L68.2002 62.4C68.2002 62.5 68.2002 62.6 68.4002 62.6H70.6002C70.7002 62.6 70.7002 62.6 70.8002 62.5L74.0002 51.3H82.3002C83.1002 51.3 83.7002 51.9 83.8002 52.6C83.8002 53.4 83.2002 54 82.5002 54.1C82.5002 54.1 82.5002 54.1 82.4002 54.1H80.6002C79.8002 54.1 79.2002 54.7 79.2002 55.5C79.2002 55.6 79.2002 55.7 79.2002 55.8C79.4002 56.4 80.0002 56.9 80.6002 56.9H93.7002C93.8002 56.9 93.9002 56.8 93.9002 56.7L99.2002 38.2C99.3002 37.9 99.2002 37.8 99.1002 37.8Z" fill="black"/>
<path d="M12.3 56.7L8.5 49.5H6.1V53.4H8V56.7H0V53.4H1.8V41H0V37.7H8.6C13.3 37.7 15.9 39.6 15.9 43.4C15.9 46 14.4 47.7 12.3 48.6L14.9 53.3H17.2V56.7H12.3ZM7.9 41H6.1V46.3H7.8C10.8 46.3 11.7 45.3 11.7 43.5C11.7 41.7 10.7 41 7.9 41Z" fill="black"/>
<path d="M25.8002 41.6C29.0002 41.6 31.7002 43.2 31.7002 46.6V52.4C31.7002 53.3 32.0002 53.4 32.7002 53.4C32.9002 53.4 33.1002 53.4 33.3002 53.4V56.6C32.5002 56.6 31.6002 56.6 30.6002 56.6C28.6002 56.6 27.6002 55.8 27.4002 54C26.5002 55.5 25.0002 56.9 22.7002 56.9C20.6002 56.9 18.2002 55.8 18.2002 52.7C18.2002 49.1 21.7002 48.2 25.1002 48.2C25.9002 48.2 26.8002 48.2 27.5002 48.3V47.8C27.5002 46.3 27.5002 44.5 25.1002 44.5C24.2002 44.5 23.5002 44.6 22.8002 44.9L22.2002 47L18.8002 46.6L19.5002 42.8C22.0002 41.9 23.3002 41.6 25.8002 41.6ZM27.4002 50.5C26.7002 50.4 26.0002 50.3 25.3002 50.3C23.8002 50.3 22.5002 50.7 22.5002 52.3C22.5002 53.2 23.0002 54 24.2002 54C25.7002 54 27.2002 53 27.4002 50.7V50.5Z" fill="black"/>
<path d="M33.1 56.7V53.5H35.1V37.4H33V34.2H39.3V53.5H41.3V56.7H33.1Z" fill="black"/>
<path d="M41.1 56.7V53.5H43.1V37.4H41V34.2H47.3V53.5H49.3V56.7H41.1Z" fill="black"/>
<path d="M64.2998 45.2L59.4998 56.7L58.4998 59.3H60.3998V62.6H52.2998V59.3H54.5998L55.3998 57L50.2998 45.3H48.7998V42.1H56.2998V45.3H54.7998L57.7998 52.1H57.9998L60.1998 45.3H58.8998V42.1H65.5998V45.3H64.2998V45.2Z" fill="black"/>
</svg>
