<svg width="380" height="80" viewBox="0 0 380 80" fill="none" xmlns="http://www.w3.org/2000/svg">
    <path d="M80.9865 37.3222C77.9746 37.3222 76.134 39.4979 76.134 43.5147C76.134 47.1967 77.8073 49.8745 80.9865 49.8745C83.9984 49.8745 86.1737 47.5314 86.1737 43.5147C86.1737 39.4979 83.8311 37.3222 80.9865 37.3222Z" fill="black"/>
    <path d="M162.307 47.6987C162.307 47.8661 162.307 48.0334 162.307 48.2008C162.475 49.3723 163.479 50.2092 164.65 50.0418H164.817C167.327 49.8744 169.335 47.6987 169.168 45.0209C168.164 44.8535 167.16 44.8535 166.156 44.6862C164.148 44.8535 162.307 45.523 162.307 47.6987Z" fill="black"/>
    <path d="M19.0757 16.2343V63.5983H184.897V16.2343H19.0757ZM67.2659 53.8912H58.5649V42.1757C58.5649 38.6611 57.3936 37.1548 55.051 37.1548C52.2065 37.1548 51.2025 39.1631 51.2025 42.0083V49.205H53.8797V53.7238H45.1787V42.0083C45.1787 38.4937 44.0074 36.9874 41.6649 36.9874C38.8203 36.9874 37.8163 38.9958 37.8163 41.841V49.0376H41.6649V53.5564H28.948V49.0376H31.7926V37.3221H28.948V32.8033H37.649V35.9832C38.9876 33.6401 41.3302 32.3012 44.0074 32.4686C47.0193 32.3012 49.6966 34.1422 50.7005 36.9874C51.7045 34.1422 54.549 32.4686 57.3936 32.4686C61.0748 32.3012 64.254 34.979 64.5887 38.6611C64.5887 38.9958 64.5887 39.3305 64.5887 39.4979V49.0376H67.2659V53.8912ZM92.1977 43.5146C92.1977 50.2092 87.1778 54.3933 80.8194 54.3933C74.461 54.3933 69.9431 50.5439 69.9431 43.8493C69.9431 43.3472 69.9431 42.8451 69.9431 42.5104C70.2778 36.82 75.2976 32.4686 80.9867 32.8033C81.4887 32.8033 81.9907 32.8033 82.4927 32.8033C88.1818 33.138 92.5323 37.9916 92.1977 43.5146ZM114.118 53.8912H96.0462L95.3769 50.8786L106.755 37.8242H100.397L99.5601 41.0041L95.2095 40.5021L95.8789 33.138H114.118L114.619 36.318L103.074 49.3723H109.767L110.771 46.1924L115.456 46.6945L114.118 53.8912ZM125.998 53.8912H119.807V46.3598H125.998V53.8912ZM125.998 40.5021H119.807V32.9707H125.998V40.5021ZM129.846 53.8912L138.882 22.2594H144.738L135.703 53.8912H129.846ZM141.894 53.8912L150.929 22.2594H156.786L147.75 53.8912H141.894ZM173.686 54.3933H173.519C171.176 54.3933 169.168 52.5523 169.168 50.2092C167.83 52.7196 165.32 54.3933 162.475 54.3933C162.308 54.3933 162.14 54.3933 161.973 54.3933C158.794 54.3933 156.117 51.7154 156.117 48.5355C156.117 43.3472 160.969 42.1757 165.822 42.1757C166.993 42.1757 168.164 42.1757 169.168 42.3431V41.6736C169.168 39.4979 169.168 36.9874 165.822 36.9874C164.65 36.9874 163.646 37.1548 162.642 37.6569L161.973 40L157.288 39.4979L158.125 34.6443C160.969 33.3054 163.981 32.6359 166.993 32.6359C171.511 32.6359 175.192 34.979 175.192 39.6652V48.7029C175.192 49.8744 175.694 50.3765 176.698 50.3765C177.033 50.3765 177.2 50.3765 177.535 50.2092V53.2217C176.363 54.0585 175.025 54.3933 173.686 54.3933Z" fill="black"/>
    <path d="M360.423 22.2594H342.017L343.021 19.4142C343.021 19.4142 343.188 19.0795 343.188 18.5774C343.188 17.4058 342.352 16.2343 341.013 16.2343H326.455H326.288H322.44C322.272 16.2343 322.272 16.2343 322.105 16.4016L308.719 63.4309C308.719 63.5983 308.719 63.7656 309.053 63.7656H312.902C313.069 63.7656 313.069 63.7657 313.237 63.5983L318.591 44.8535H332.479C333.818 44.8535 334.822 45.8577 334.989 47.0293C334.989 48.3682 333.985 49.3723 332.814 49.5397C332.814 49.5397 332.814 49.5397 332.647 49.5397H329.635C328.296 49.5397 327.292 50.5439 327.292 51.8828C327.292 52.0502 327.292 52.2175 327.292 52.3849C327.627 53.3891 328.631 54.2259 329.635 54.2259H351.555C351.722 54.2259 351.889 54.0585 351.889 53.8912L360.758 22.9288C360.925 22.5941 360.757 22.2594 360.423 22.2594Z" fill="black"/>
    <path d="M215.35 53.8913L208.992 41.841H204.976V48.3682H208.155V53.8913H194.769V48.3682H197.781V27.7825H194.769V22.2595H209.159C217.024 22.2595 221.374 25.4394 221.374 31.7992C221.374 36.1507 218.864 38.9959 215.35 40.5021L219.701 48.3682H223.549V53.8913H215.35ZM207.988 27.7825H204.976V36.6528H207.821C212.84 36.6528 214.346 34.9791 214.346 31.9666C214.346 28.7867 212.673 27.7825 207.988 27.7825Z" fill="black"/>
    <path d="M237.772 28.7866C243.126 28.7866 247.644 31.4644 247.644 37.1548V46.8619C247.644 48.3682 248.146 48.5355 249.317 48.5355C249.652 48.5355 249.987 48.5355 250.321 48.5355V53.8912C248.983 53.8912 247.477 53.8912 245.804 53.8912C242.457 53.8912 240.784 52.5523 240.449 49.5397C238.943 52.0502 236.433 54.3933 232.585 54.3933C229.071 54.3933 225.055 52.5523 225.055 47.364C225.055 41.3389 230.911 39.8326 236.601 39.8326C237.939 39.8326 239.445 39.8326 240.616 40V39.1631C240.616 36.6527 240.616 33.6401 236.601 33.6401C235.095 33.6401 233.923 33.8075 232.752 34.3096L231.748 37.8242L226.059 37.1548L227.23 30.7949C231.581 29.2887 233.756 28.7866 237.772 28.7866ZM240.616 43.5146C239.445 43.3472 238.274 43.1799 237.102 43.1799C234.593 43.1799 232.417 43.8493 232.417 46.5272C232.417 48.0334 233.254 49.3723 235.262 49.3723C237.772 49.3723 240.282 47.6987 240.616 43.8493V43.5146Z" fill="black"/>
    <path d="M249.987 53.8912V48.5355H253.334V21.5899H249.82V16.2343H260.362V48.5355H263.708V53.8912H249.987Z" fill="black"/>
    <path d="M263.541 53.8912V48.5355H266.887V21.5899H263.373V16.2343H273.915V48.5355H277.261V53.8912H263.541Z" fill="black"/>
    <path d="M302.361 34.8116L294.496 54.0585L292.823 58.41H296.002V63.933H282.449V58.41H286.297L287.636 54.5606L279.102 34.979H276.592V29.6234H289.142V34.979H286.632L291.652 46.3598H291.986L295.668 34.979H293.492V29.6234H304.703V34.979H302.361V34.8116Z" fill="black"/>
</svg>
