<svg width="76" height="76" viewBox="0 -3 76 76" fill="none" xmlns="http://www.w3.org/2000/svg">
  <style>
    path {
      fill: #0C0C0D;
    }

    @media (prefers-color-scheme: dark) {
      path {
        fill: white;
      }
    }
  </style>
<path d="M75.3369 9.24001H48.5035L49.8835 5.02334C49.8835 5.02334 50.0369 4.56334 50.0369 3.87334C50.0369 2.11001 48.7335 0.576673 46.8935 0.42334H25.8102V0.500007C25.7335 0.42334 25.6569 0.42334 25.5802 0.42334H19.9835C19.8302 0.42334 19.6769 0.576674 19.6002 0.730007L0.126855 69.1167C0.0501881 69.3467 0.280188 69.6533 0.510188 69.6533H6.10685C6.26019 69.6533 6.41352 69.5 6.49019 69.3467L14.3102 41.9H34.4735C36.3135 41.8233 37.9235 43.28 38.0769 45.12C38.1535 47.0367 36.6969 48.6467 34.7802 48.7233C34.7035 48.7233 34.7035 48.7233 34.6269 48.7233H30.4102C28.4935 48.7233 27.0369 50.2567 27.0369 52.1733C27.0369 52.4033 27.0369 52.6333 27.1135 52.8633C27.4969 54.4733 28.9535 55.5467 30.5635 55.47H62.3802C62.6102 55.47 62.8402 55.3167 62.8402 55.0867L75.7969 9.93001C75.9502 9.62334 75.7202 9.24001 75.3369 9.24001Z" fill-opacity="0.8"/>
</svg>
